<?xml version="1.0" encoding="UTF-8" standalone="no"?>
<!DOCTYPE svg PUBLIC "-//W3C//DTD SVG 1.1//EN" "http://www.w3.org/Graphics/SVG/1.1/DTD/svg11.dtd">
<svg width="100%" height="100%" viewBox="0 0 2724 322" version="1.1" xmlns="http://www.w3.org/2000/svg" xmlns:xlink="http://www.w3.org/1999/xlink" xml:space="preserve" xmlns:serif="http://www.serif.com/" style="fill-rule:evenodd;clip-rule:evenodd;stroke-linejoin:round;stroke-miterlimit:2;">
    <g transform="matrix(1,0,0,1,-392.005,-447.87)">
        <g transform="matrix(1,0,0,1,-5.75003,-2673.35)">
            <g transform="matrix(0.730945,0,0,0.730945,-745.518,1955.53)">
                <path d="M1634.88,1957.32C1634.88,1898.05 1683,1849.92 1742.28,1849.92C1801.55,1849.92 1849.67,1898.05 1849.67,1957.32L2066.47,1957.32C2066.47,1898.05 2114.6,1849.92 2173.87,1849.92C2233.15,1849.92 2281.27,1898.05 2281.27,1957.32L2296.87,1957.32C2310.83,1957.32 2324.21,1951.78 2334.08,1941.91C2343.94,1932.05 2349.48,1918.66 2349.48,1904.71L2349.48,1810.96C2349.48,1781.9 2325.93,1758.35 2296.87,1758.35C2292.42,1758.35 2287.89,1758.35 2283.38,1758.35C2243.92,1758.35 2206.53,1740.69 2181.47,1710.22C2169.9,1696.14 2157,1680.46 2144.53,1665.3C2107.8,1620.64 2053,1594.77 1995.18,1594.77L1809.78,1594.77C1761.81,1594.77 1716.12,1615.24 1684.19,1651.04C1662.12,1675.79 1639.09,1701.62 1629.69,1712.16C1626.78,1715.42 1623.47,1718.32 1619.84,1720.76C1612.54,1725.69 1599.13,1734.73 1587.3,1742.7C1572.8,1752.48 1564.1,1768.83 1564.1,1786.33C1564.1,1816.95 1564.1,1866.74 1564.1,1904.71C1564.1,1918.66 1569.65,1932.05 1579.51,1941.91C1589.38,1951.78 1602.76,1957.32 1616.72,1957.32L1634.88,1957.32ZM1665.53,1957.32C1665.53,1914.96 1699.92,1880.57 1742.28,1880.57C1784.63,1880.57 1819.02,1914.96 1819.02,1957.32L1665.53,1957.32ZM2097.12,1957.32C2097.12,1914.96 2131.51,1880.57 2173.87,1880.57C2216.23,1880.57 2250.62,1914.96 2250.62,1957.32L2097.12,1957.32ZM1857.29,1623.6L1827.78,1623.3C1769.35,1622.68 1715.39,1654.51 1687.66,1705.95C1680.6,1719.29 1675.1,1733.91 1672.05,1750.48L1857.29,1750.48L1857.29,1623.6ZM1899.31,1624.03L1899.31,1750.48L2157.81,1750.48C2145.79,1718.24 2123.76,1690.02 2095.56,1663.27C2070.13,1639.08 2036.47,1625.43 2001.37,1625.07C1972.99,1624.78 1935.9,1624.4 1899.31,1624.03Z" style="fill:rgb(59,60,152);"/>
                <path d="M1742.28,1880.57C1784.63,1880.57 1819.02,1914.96 1819.02,1957.32C1819.02,1999.68 1784.63,2034.07 1742.28,2034.07C1699.92,2034.07 1665.53,1999.68 1665.53,1957.32C1665.53,1914.96 1699.92,1880.57 1742.28,1880.57ZM2173.87,1880.57C2216.23,1880.57 2250.62,1914.96 2250.62,1957.32C2250.62,1999.68 2216.23,2034.07 2173.87,2034.07C2131.51,2034.07 2097.12,1999.68 2097.12,1957.32C2097.12,1914.96 2131.51,1880.57 2173.87,1880.57Z" style="fill:rgb(59,60,152);"/>
            </g>
            <g transform="matrix(0.741073,0,0,0.741073,64.8973,836.675)">
                <text x="1397.49px" y="3453.52px" style="font-family:'Poppins-Bold', 'Poppins';font-weight:700;font-size:433.17px;fill:rgb(17,17,17);">Rental Mobil</text>
            </g>
        </g>
    </g>
</svg>
